<svg xmlns="http://www.w3.org/2000/svg" width="1024pt" height="1024pt" viewBox="0 0 1024 1024"><g fill="#d00030"><path d="M130.66 258.87c127.14-45.34 254.28-90.67 381.41-136.02 127.15 45.27 254.28 90.62 381.39 136-19.47 168.08-38.84 336.17-58.18 504.26-107.73 59.69-215.46 119.35-323.2 179.01-107.75-59.67-215.5-119.36-323.25-179.03-19.42-168.07-38.8-336.14-58.17-504.22m380.63-43.86c-79.24 177.63-158.45 355.28-237.68 532.92 29.65-.02 59.3.07 88.95-.05 15.88-39.88 31.92-79.69 47.86-119.54 67.44 0 134.89-.02 202.34-.01 15.93 39.84 32 79.62 47.82 119.5 29.66.23 59.32.04 88.98.1-79.1-178.04-158.26-356.04-237.35-534.08l-.92 1.16Z"/><path d="M442.38 554.6c23.2-55.82 46.36-111.66 69.63-167.46 23.24 55.81 46.44 111.64 69.61 167.47-46.41 0-92.83-.03-139.24-.01Z"/></g><path fill="#fff" d="m511.29 215.01.92-1.16c79.09 178.04 158.25 356.04 237.35 534.08-29.66-.06-59.32.13-88.98-.1-15.82-39.88-31.89-79.66-47.82-119.5-67.45-.01-134.9.01-202.34.01-15.94 39.85-31.98 79.66-47.86 119.54-29.65.12-59.3.03-88.95.05 79.23-177.64 158.44-355.29 237.68-532.92M442.38 554.6c46.41-.02 92.83.01 139.24.01-23.17-55.83-46.37-111.66-69.61-167.47-23.27 55.8-46.43 111.64-69.63 167.46Z"/></svg>