<svg xmlns="http://www.w3.org/2000/svg" width="1024pt" height="1024pt" viewBox="0 0 1024 1024"><path fill="#5c2d91" d="M505.24 0h13.46c79.64 1.02 159.05 20.71 229.62 57.71 65.8 34.23 123.95 83.02 169.22 141.76 36.12 46.76 64.1 99.81 82.11 156.1 15.45 48 23.46 98.3 24.35 148.7v14.49c-1.04 76.39-19.13 152.58-53.34 220.93-23.24 46.84-53.79 90.03-90.1 127.65-90.48-90.8-181.28-181.29-271.85-272.02-1.03-1.09-2.03-2.21-3.02-3.32 20.44-.01 40.89.01 61.34 0 .07-10.67.12-21.33.16-31.99-31.34-.02-62.67-.01-94.01-.01-8.64-8.84-17.25-17.74-26.29-26.17 0-24.98-.02-49.96.01-74.95 35.08-.02 70.17.01 105.25-.01.02-10.24.01-20.47.01-30.7-35.09-.03-70.18.01-105.26-.02-.02-32.31-.02-64.63-.01-96.94 37.65-.02 75.3.01 112.94-.02.02-10.28.02-20.57.01-30.86-49.28-.01-98.56 0-147.83 0-.02 65.99-.01 131.98-.01 197.97-12.08-11.36-23.55-23.36-35.36-35-13.42-13.49-26.95-26.86-40.32-40.39.03-40.83-.05-81.67.04-122.5-11.37-.19-22.75-.04-34.11-.08-.03 29.34-.01 58.67-.02 88.01-3.47-2.69-6.49-5.89-9.54-9.04-78.71-78.58-157.26-157.34-236.01-235.89 41.23-39.81 89.2-72.63 141.25-96.63C362.72 16.81 433.88.96 505.24 0m188.04 300.32c-.03 10.27.02 20.54-.03 30.8 27.95.19 55.91.02 83.86.09V592h34.09c.01-86.93-.01-173.86.01-260.8 28.26 0 56.52.01 84.79 0-.02-10.3.04-20.6-.03-30.9-67.56.04-135.13-.01-202.69.02Z"/><g fill="#6d429c"><path d="M27.03 347.11C53.16 270.16 98 199.63 156.68 143.41c78.75 78.55 157.3 157.31 236.01 235.89 3.05 3.15 6.07 6.35 9.54 9.04.01 27.87 0 55.74.01 83.61.17 25.69-.9 51.44 1.94 77.03-19.59-31.94-40.19-63.26-60.23-94.92-32.74-51.24-65.43-102.52-98.21-153.74-14.77.02-29.53-.01-44.3.02-.03 97.2.04 194.4-.04 291.6 11.37.14 22.73.02 34.1.06.08-74.66-.06-149.33.08-223.99-.06-9.14-.93-18.24-1.53-27.35 1.67.91 2.09 2.85 2.84 4.46 2.07 5.02 4.75 9.77 7.67 14.35 49.89 77.51 99.91 154.94 149.76 232.48 14 .11 28 .02 42 .05.01-56.37.01-112.73 0-169.09 13.37 13.53 26.9 26.9 40.32 40.39 11.81 11.64 23.28 23.64 35.36 35V592h93.69c.99 1.11 1.99 2.23 3.02 3.32 90.57 90.73 181.37 181.22 271.85 272.02-53.15 55.47-119.07 98.57-191.13 125.17-54.23 20.06-111.9 30.72-169.71 31.49h-17.34c-56.09-1.03-112.04-11.25-164.79-30.4-61.88-22.38-119.29-56.95-168.15-101.01-59.29-53.3-105.95-120.6-134.83-194.93C12.55 641.06.8 580.48 0 519.75v-15.49c.7-53.37 9.86-106.62 27.03-157.15m84.36 204.39c-10.82 3.54-17.78 15.8-15.01 26.91 2.27 10.55 12.87 18.68 23.72 17.52 12.28-.65 22.54-12.74 20.89-24.99-1.11-13.77-16.41-24.26-29.6-19.44m219.98 135c-9.64 13.01-14.45 29.38-13.77 45.54-.45 14.55 3.79 29.22 12.13 41.17 9.09 13.52 24.4 22.35 40.45 24.5 16.12 1.79 32.85-.19 47.59-7.2.23-4.98.11-9.96.17-14.94-6.95 4.2-14.79 6.85-22.79 8.15-11.87 1.67-24.65 1.43-35.4-4.5-13.01-6.63-21.39-20.06-24.41-34.05-1.41-5.97-1.17-12.13-1.15-18.21.06-11.03 3.5-21.99 9.56-31.18 7.52-11.82 20.36-20.01 34.23-21.92 13.76-1.66 28.1.75 40.26 7.53 0-5.26-.08-10.51.05-15.75-12.29-5.36-26.01-6.45-39.25-5.57-18.7 1.36-36.71 11.16-47.67 26.43m144.08 11.12c-5.85 1.01-11.53 3.08-16.62 6.14-12.59 7.18-20.05 21.21-21.85 35.28-1.04 11.46-.56 23.56 4.89 33.96 5.92 12.36 17.73 21.7 31.21 24.32 11.77 2.16 24.53.79 34.88-5.51 14.73-8.68 23.28-25.93 23.07-42.8.94-13.65-2.88-27.78-11.74-38.35-4.65-5.19-10.73-9.04-17.29-11.33-8.49-3.06-17.73-2.65-26.55-1.71m107.54 5.34c-5.5 4.1-9.01 10.17-11.51 16.44 0-6.44-.03-12.88.03-19.31-5.33-.02-10.66-.02-15.98 0 .05 31.94.04 63.88 0 95.83 5.32 0 10.65.01 15.98-.01-.09-17.3.02-34.61-.06-51.91.01-4.8.95-9.57 2.59-14.06 2.19-5.83 5.34-11.83 11.02-14.93 6.3-3.65 14.35-3.34 20.64.19.01-5.16-.02-10.33.02-15.49-7.52-2.4-16.33-1.61-22.73 3.25m47.34 6.34c-10.1 10.04-15.48 24.46-14.97 38.66-.76 13.43 3.48 27.19 12.21 37.49 6.14 6.49 14.5 10.85 23.34 12.16 14.29 1.77 29.63-.42 41.61-8.84-.16-4.62-.04-9.24-.07-13.86-8.28 6.03-18.12 10.12-28.46 10.4-8.66.72-17.66-2.27-23.82-8.47-5.91-6.8-8.78-15.97-8.44-24.93 22.6.02 45.19.01 67.78.01-.11-3.32-.19-6.63-.12-9.94.35-11.21-3.17-22.51-9.83-31.54-7.04-8.7-18.43-13.4-29.54-12.85-10.92-.24-21.93 3.96-29.69 11.71Z"/><path d="M546.89 533.83c9.04 8.43 17.65 17.33 26.29 26.17-8.76-.01-17.52.01-26.28-.01-.02-8.72-.01-17.44-.01-26.16ZM476.32 711.48c8.25-1.74 17.42-1.19 24.64 3.52 8.58 5.29 12.7 15.44 14.17 25.02.92 10.32.69 21.3-4.47 30.6-3.75 8.08-12.01 13.47-20.71 14.66-7.33.76-15.11.11-21.55-3.76-8.54-4.78-13.53-14.11-15.36-23.45-1.87-12.3-.57-25.8 7.1-36.03 3.91-5.3 9.81-9.01 16.18-10.56ZM641.48 718.49c7.31-7.66 19.76-9.81 29.22-5.1 9.33 4.63 13.1 15.91 12.89 25.72-17.35.05-34.7.09-52.04.16 1.05-7.74 4.38-15.23 9.93-20.78Z"/></g><g fill="#fefefe"><path d="M201.44 300.34c14.77-.03 29.53 0 44.3-.02 32.78 51.22 65.47 102.5 98.21 153.74 20.04 31.66 40.64 62.98 60.23 94.92-2.84-25.59-1.77-51.34-1.94-77.03-.01-27.87 0-55.74-.01-83.61.01-29.34-.01-58.67.02-88.01 11.36.04 22.74-.11 34.11.08-.09 40.83-.01 81.67-.04 122.5.01 56.36.01 112.72 0 169.09-14-.03-28 .06-42-.05-49.85-77.54-99.87-154.97-149.76-232.48-2.92-4.58-5.6-9.33-7.67-14.35-.75-1.61-1.17-3.55-2.84-4.46.6 9.11 1.47 18.21 1.53 27.35-.14 74.66 0 149.33-.08 223.99-11.37-.04-22.73.08-34.1-.06.08-97.2.01-194.4.04-291.6ZM512.01 300.33c49.27 0 98.55-.01 147.83 0 .01 10.29.01 20.58-.01 30.86-37.64.03-75.29 0-112.94.02-.01 32.31-.01 64.63.01 96.94 35.08.03 70.17-.01 105.26.02 0 10.23.01 20.46-.01 30.7-35.08.02-70.17-.01-105.25.01-.03 24.99-.01 49.97-.01 74.95 0 8.72-.01 17.44.01 26.16 8.76.02 17.52 0 26.28.01 31.34 0 62.67-.01 94.01.01-.04 10.66-.09 21.32-.16 31.99-20.45.01-40.9-.01-61.34 0H512v-93.7c0-65.99-.01-131.98.01-197.97ZM693.28 300.32c67.56-.03 135.13.02 202.69-.02.07 10.3.01 20.6.03 30.9-28.27.01-56.53 0-84.79 0-.02 86.94 0 173.87-.01 260.8h-34.09V331.21c-27.95-.07-55.91.1-83.86-.09.05-10.26 0-20.53.03-30.8ZM111.39 551.5c13.19-4.82 28.49 5.67 29.6 19.44 1.65 12.25-8.61 24.34-20.89 24.99-10.85 1.16-21.45-6.97-23.72-17.52-2.77-11.11 4.19-23.37 15.01-26.91ZM331.37 686.5c10.96-15.27 28.97-25.07 47.67-26.43 13.24-.88 26.96.21 39.25 5.57-.13 5.24-.05 10.49-.05 15.75-12.16-6.78-26.5-9.19-40.26-7.53-13.87 1.91-26.71 10.1-34.23 21.92-6.06 9.19-9.5 20.15-9.56 31.18-.02 6.08-.26 12.24 1.15 18.21 3.02 13.99 11.4 27.42 24.41 34.05 10.75 5.93 23.53 6.17 35.4 4.5 8-1.3 15.84-3.95 22.79-8.15-.06 4.98.06 9.96-.17 14.94-14.74 7.01-31.47 8.99-47.59 7.2-16.05-2.15-31.36-10.98-40.45-24.5-8.34-11.95-12.58-26.62-12.13-41.17-.68-16.16 4.13-32.53 13.77-45.54ZM475.45 697.62c8.82-.94 18.06-1.35 26.55 1.71 6.56 2.29 12.64 6.14 17.29 11.33 8.86 10.57 12.68 24.7 11.74 38.35.21 16.87-8.34 34.12-23.07 42.8-10.35 6.3-23.11 7.67-34.88 5.51-13.48-2.62-25.29-11.96-31.21-24.32-5.45-10.4-5.93-22.5-4.89-33.96 1.8-14.07 9.26-28.1 21.85-35.28 5.09-3.06 10.77-5.13 16.62-6.14m.87 13.86c-6.37 1.55-12.27 5.26-16.18 10.56-7.67 10.23-8.97 23.73-7.1 36.03 1.83 9.34 6.82 18.67 15.36 23.45 6.44 3.87 14.22 4.52 21.55 3.76 8.7-1.19 16.96-6.58 20.71-14.66 5.16-9.3 5.39-20.28 4.47-30.6-1.47-9.58-5.59-19.73-14.17-25.02-7.22-4.71-16.39-5.26-24.64-3.52ZM582.99 702.96c6.4-4.86 15.21-5.65 22.73-3.25-.04 5.16-.01 10.33-.02 15.49-6.29-3.53-14.34-3.84-20.64-.19-5.68 3.1-8.83 9.1-11.02 14.93-1.64 4.49-2.58 9.26-2.59 14.06.08 17.3-.03 34.61.06 51.91-5.33.02-10.66.01-15.98.01.04-31.95.05-63.89 0-95.83 5.32-.02 10.65-.02 15.98 0-.06 6.43-.03 12.87-.03 19.31 2.5-6.27 6.01-12.34 11.51-16.44ZM630.33 709.3c7.76-7.75 18.77-11.95 29.69-11.71 11.11-.55 22.5 4.15 29.54 12.85 6.66 9.03 10.18 20.33 9.83 31.54-.07 3.31.01 6.62.12 9.94-22.59 0-45.18.01-67.78-.01-.34 8.96 2.53 18.13 8.44 24.93 6.16 6.2 15.16 9.19 23.82 8.47 10.34-.28 20.18-4.37 28.46-10.4.03 4.62-.09 9.24.07 13.86-11.98 8.42-27.32 10.61-41.61 8.84-8.84-1.31-17.2-5.67-23.34-12.16-8.73-10.3-12.97-24.06-12.21-37.49-.51-14.2 4.87-28.62 14.97-38.66m11.15 9.19c-5.55 5.55-8.88 13.04-9.93 20.78 17.34-.07 34.69-.11 52.04-.16.21-9.81-3.56-21.09-12.89-25.72-9.46-4.71-21.91-2.56-29.22 5.1Z"/></g></svg>