<svg xmlns="http://www.w3.org/2000/svg" width="1150pt" height="1000pt" viewBox="0 0 1150 1000"><g fill="#61dafb"><path d="M332.91 0h36.77c31.35 4.13 60.92 16.7 88.29 32.12 43.07 24.57 81.48 56.51 117.03 90.89 27.94-27.06 57.64-52.45 89.97-74.14 27.35-18.22 56.68-34.12 88.39-43.24 8.87-2.51 17.9-4.49 27.06-5.63h36.53c19.09 2.66 37.51 10.37 52.49 22.55 23.66 19.01 37.61 47.54 44.7 76.55 9.72 40.18 8.83 82.11 4.2 122.93-3.51 30.17-9.47 60.01-16.86 89.46 31.12 8.87 61.82 19.39 91.41 32.53 24.42 10.89 48.16 23.52 70.01 39.01 24.94 17.74 47.91 39.64 61.89 67.23 8.97 17.75 13.48 37.9 11.86 57.79-1.48 19.92-8.96 39.08-19.97 55.63-17.7 26.66-43.08 47.19-69.96 64.04-44.86 27.73-94.72 46.29-145.24 60.77 11.96 47.89 20.42 97.01 20.19 146.5-.39 35.06-5.07 71.04-20.91 102.74-8.44 16.89-20.52 32.15-35.91 43.22-14.04 10.2-30.68 16.57-47.81 19.05h-36.66c-35.26-4.7-68.17-19.84-98.39-38.03-39.04-23.73-74.22-53.29-106.99-84.99-34 32.9-70.61 63.49-111.41 87.64-29.02 16.96-60.5 31.01-94.09 35.38h-36.41c-17.93-2.52-35.29-9.43-49.74-20.39-14.54-10.93-25.99-25.62-34.1-41.83-15.42-30.8-20.25-65.71-20.9-99.81-.61-50.5 7.96-100.65 20.17-149.5-52.11-14.94-103.59-34.19-149.48-63.45-27.41-17.74-53.21-39.6-69.9-68.07-12.97-21.79-18.97-48.01-14.84-73.18 4.04-26.34 18.3-50.05 36.3-69.27 23.06-24.56 51.72-43.12 81.49-58.51 37.07-18.98 76.44-33.07 116.43-44.48-3.66-14.58-6.98-29.23-9.81-43.99-8.59-45.56-13.5-92.36-8.21-138.63 3.86-32.16 13.27-64.9 34.05-90.39C281.37 17.58 306.33 3.63 332.91 0m-14.94 55.91c-16.24 9.52-25.96 26.85-31.64 44.27-7.66 23.79-9.45 49.05-9.1 73.91.87 42.4 8.39 84.38 18.67 125.42 49.36-11.18 99.52-18.61 149.9-23.32 29.22-41.3 60.78-80.98 95.11-118.16-28.59-27.69-59.15-53.62-92.86-74.92-23.22-14.47-48.07-27.19-74.99-33.01-18.26-3.88-38.59-4.02-55.09 5.81m439.93-.5c-21.75 7.51-42.05 18.66-61.31 31.14-31.59 20.65-60.43 45.25-87.5 71.49 34.34 37.15 65.86 76.85 95.11 118.12 50.38 4.71 100.53 12.17 149.91 23.31 9.32-37.2 16.31-75.14 18.25-113.51 1.17-25.37.29-51.1-5.84-75.85-4.12-16.12-10.62-32.22-22.23-44.43-8.92-9.5-21.22-15.55-34.09-17.27-17.69-2.44-35.59 1.31-52.3 7M509.51 271.83c43.62-2.02 87.34-1.98 130.96-.03-20.65-27.16-42.36-53.53-65.47-78.64-23.12 25.12-44.84 51.49-65.49 78.67m-36.66 51.13C434.4 379.29 400.24 438.57 370.6 500a1376.29 1376.29 0 0 0 102.21 177.02c67.99 5.06 136.36 5.01 204.35.04 38.41-56.37 72.6-115.63 102.24-177.06-29.64-61.43-63.82-120.69-102.24-177.06-67.98-4.99-136.33-5.01-204.31.02m-163.58 23.63c10.2 32.56 22.16 64.57 35.39 96.02 20.07-38.76 41.93-76.59 65.44-113.37-33.85 4.23-67.53 9.92-100.83 17.35m430.59-17.4c23.53 36.79 45.41 74.64 65.47 113.43 13.23-31.46 25.19-63.48 35.4-96.05-33.31-7.46-67.02-13.09-100.87-17.38m-579.49 67.27c-25.16 12.53-49.63 27.28-69.83 47.02-11.19 11.14-21.18 24.12-25.98 39.35-3.8 11.85-3.49 24.9.74 36.59 5.33 14.94 15.47 27.63 26.75 38.56 16.86 16.13 36.66 28.83 57.15 39.83 35.67 18.88 73.85 32.6 112.61 43.63 15.01-48.32 33.62-95.49 54.76-141.44-21.13-45.97-39.76-93.13-54.75-141.46-34.75 9.9-69 21.96-101.45 37.92M833.42 500c21.14 45.96 39.75 93.14 54.77 141.47 27.06-7.7 53.78-16.73 79.63-27.88 30.72-13.37 60.82-29.38 85.99-51.75 13.56-12.33 25.99-26.96 31.63-44.7 4.43-13.64 3.15-28.79-2.81-41.76-7.74-17.05-20.97-30.91-35.23-42.74-20.18-16.53-43.09-29.41-66.64-40.45-29.81-13.87-60.97-24.65-92.56-33.68-15.04 48.33-33.63 95.52-54.78 141.49M309.27 653.4c33.29 7.44 66.97 13.12 100.82 17.34-23.5-36.78-45.37-74.6-65.43-113.36-13.24 31.45-25.18 63.46-35.39 96.02m430.6 17.38c33.86-4.25 67.55-9.91 100.86-17.35-10.2-32.58-22.17-64.59-35.4-96.05-20.06 38.77-41.93 76.62-65.46 113.4m-443.97 29.7c-9.27 36.9-16.21 74.54-18.23 112.59-1.21 25.04-.44 50.43 5.33 74.93 3.87 15.9 9.95 31.78 20.83 44.27 8.43 9.79 20.26 16.52 32.98 18.82 17.94 3.29 36.35-.29 53.46-5.88 26.77-9.02 51.38-23.39 74.5-39.42 27.19-19 52.35-40.76 76.15-63.83-34.32-37.18-65.9-76.83-95.09-118.13-50.38-4.76-100.57-12.15-149.93-23.35m408.25 23.38c-29.2 41.28-60.74 80.94-95.06 118.09 30.89 29.9 64.06 57.81 101.04 79.93 18.76 11.04 38.55 20.7 59.66 26.32 18.12 4.72 38.13 6.63 55.79-.86 14.86-6.17 25.8-19.17 32.48-33.49 7.83-16.5 11.49-34.64 13.36-52.71 2.67-26.96 1.24-54.17-2.03-81.01-3.33-26.84-8.69-53.4-15.29-79.62-49.38 11.17-99.56 18.58-149.95 23.35m-194.63 4.3c20.65 27.18 42.36 53.56 65.48 78.66 23.11-25.11 44.83-51.47 65.47-78.63-43.62 1.96-87.33 2-130.95-.03Z"/><path d="M567.13 400.15c17.46-1.38 35.29 1.85 51.09 9.46 17.96 8.57 33.24 22.65 43.27 39.85 18.56 31.07 18.12 72.26-1.11 102.92-10.15 16.57-25.23 30.07-42.82 38.32-19.64 9.29-42.35 11.8-63.57 7.24-30.18-6.27-56.72-27.42-69.68-55.37-10.96-23.11-12.46-50.48-4.21-74.69 9.61-28.9 33.2-52.67 62.03-62.51a99.74 99.74 0 0 1 25-5.22Z"/></g></svg>