<svg xmlns="http://www.w3.org/2000/svg" width="1024pt" height="1024pt" viewBox="0 0 1024 1024"><path fill="#3178c6" d="M93.67 0h835.86c20.81 1.24 41.22 8.96 57.39 22.17 21.81 17.45 35.5 44.35 37.08 72.22v835.19c-1.24 19.59-8.09 38.83-19.97 54.49-17.36 23.41-45.33 38.33-74.41 39.93H93.82c-19.6-1.43-38.83-8.36-54.43-20.38C16.29 986.24 1.61 958.48 0 929.63V94.4c1.42-24.31 11.89-47.99 29.23-65.14C46.21 12.06 69.61 1.71 93.67 0m651.15 482.72c-19.23 4.17-37.98 11.07-54.81 21.32-26.75 15.92-47.75 42.35-54.55 72.98-4.55 20.62-4.72 42.31-.07 62.93 4.28 18.68 13.52 36.15 26.42 50.3 17.7 19.55 40.61 33.56 64.4 44.48 24.96 11.15 50.98 20.29 74.37 34.65 10.7 6.63 20.95 14.73 27.62 25.59 7.1 12 7.35 28.09-.36 39.88-5.43 8.38-14.13 14.08-23.22 17.84-15.98 6.52-33.49 8.06-50.6 7.8-43.72-.82-86.82-17.35-120.14-45.63-.01 33.37 0 66.73 0 100.09 19.89 10.14 41.65 16.1 63.59 19.81 24.29 4.11 48.98 5.66 73.59 5.11 23.98-.65 48.01-3.47 71.21-9.69 28.04-7.76 55.23-22.3 73.27-45.66 11.8-14.81 19.48-32.72 22.36-51.43 3.11-20.21 3-41.11-1.73-61.06-4.9-20.26-15.99-38.84-30.95-53.29-14.23-14.04-31.29-24.81-48.96-33.97-27.63-14.73-57.9-24-84.82-40.15-10.53-6.42-20.89-13.93-27.62-24.48-7.41-11.77-7.32-28.1.96-39.42 7.18-10.1 18.58-16.28 30.19-19.89 22-6.78 45.54-6.31 68.12-3.07 27.3 4.22 54.25 13.3 77.19 28.96 0-31.18.01-62.35-.01-93.52-33.18-12.72-68.98-16.69-104.3-17.14-23.86-.46-47.84 1.44-71.15 6.66M236 486c0 27.39-.01 54.78.01 82.16 42.6.02 85.2 0 127.8.01.01 121.94-.01 243.88.01 365.82 33.91 0 67.83.04 101.75-.02-.02-121.93-.03-243.87 0-365.81 42.81.01 85.62.01 128.42 0 .02-27.38.01-54.77.01-82.16H236Z"/><g fill="#fff"><path d="M744.82 482.72c23.31-5.22 47.29-7.12 71.15-6.66 35.32.45 71.12 4.42 104.3 17.14.02 31.17.01 62.34.01 93.52-22.94-15.66-49.89-24.74-77.19-28.96-22.58-3.24-46.12-3.71-68.12 3.07-11.61 3.61-23.01 9.79-30.19 19.89-8.28 11.32-8.37 27.65-.96 39.42 6.73 10.55 17.09 18.06 27.62 24.48 26.92 16.15 57.19 25.42 84.82 40.15 17.67 9.16 34.73 19.93 48.96 33.97 14.96 14.45 26.05 33.03 30.95 53.29 4.73 19.95 4.84 40.85 1.73 61.06-2.88 18.71-10.56 36.62-22.36 51.43-18.04 23.36-45.23 37.9-73.27 45.66-23.2 6.22-47.23 9.04-71.21 9.69-24.61.55-49.3-1-73.59-5.11-21.94-3.71-43.7-9.67-63.59-19.81 0-33.36-.01-66.72 0-100.09 33.32 28.28 76.42 44.81 120.14 45.63 17.11.26 34.62-1.28 50.6-7.8 9.09-3.76 17.79-9.46 23.22-17.84 7.71-11.79 7.46-27.88.36-39.88-6.67-10.86-16.92-18.96-27.62-25.59-23.39-14.36-49.41-23.5-74.37-34.65-23.79-10.92-46.7-24.93-64.4-44.48-12.9-14.15-22.14-31.62-26.42-50.3-4.65-20.62-4.48-42.31.07-62.93 6.8-30.63 27.8-57.06 54.55-72.98 16.83-10.25 35.58-17.15 54.81-21.32ZM236 486h358c0 27.39.01 54.78-.01 82.16-42.8.01-85.61.01-128.42 0-.03 121.94-.02 243.88 0 365.81-33.92.06-67.84.02-101.75.02-.02-121.94 0-243.88-.01-365.82-42.6-.01-85.2.01-127.8-.01-.02-27.38-.01-54.77-.01-82.16Z"/></g></svg>