<svg xmlns="http://www.w3.org/2000/svg" width="1184" height="769pt" viewBox="0 0 888 769"><path fill="#41b883" d="M0 0h177c.44.56 1.34 1.68 1.79 2.25C266.76 154.6 354.8 306.92 442.77 459.28c.3.41.91 1.22 1.21 1.62 7.74-12.38 14.7-25.28 22.13-37.87C546.16 284.46 626.19 145.9 706.23 7.33c1.36-2.4 2.95-4.7 3.86-7.33H888v-.08c-40.94 71.32-82.24 142.44-123.32 213.69-106.31 184.03-212.6 368.08-318.92 552.1-.81.92-1.19 2.01-1.13 3.29h-1.25c-.17-.61-.52-1.82-.69-2.43C295.09 511.18 147.68 255.67 0 .32V0Z"/><path fill="#34495e" d="M177 0h164.54c34.19 59.02 68.18 118.17 102.42 177.16C478.26 118.2 512.21 59.03 546.41 0h163.68c-.91 2.63-2.5 4.93-3.86 7.33-80.04 138.57-160.07 277.13-240.12 415.7-7.43 12.59-14.39 25.49-22.13 37.87-.3-.4-.91-1.21-1.21-1.62C354.8 306.92 266.76 154.6 178.79 2.25 178.34 1.68 177.44.56 177 0Z"/></svg>