<svg fill="#000" width="512pt" height="512pt" viewBox="0 0 512 512" xmlns="http://www.w3.org/2000/svg"><path d="M244.71 6.61c35.8-1.57 72.01 4.01 105.35 17.3 23.47 9.31 45.49 22.2 65.32 37.82 39.19 31.03 68.83 73.89 84.33 121.4 8.03 24.58 11.81 50.41 12.29 76.23v6.12c-.65 23.85-3.63 47.75-10.64 70.61-13.56 45.82-41.06 87.02-76.52 118.83-23.67 20.91-51.36 37.25-81.12 47.82-4.79 2.01-10.01 3.84-15.26 2.54-5.47-1.22-8.84-6.94-8.76-12.31-.11-18.99-.01-37.97-.05-56.96-.05-12.02.56-24.28-2.68-36-2.36-9.44-7.33-18.29-14.66-24.77 14.3-1.81 28.67-3.93 42.38-8.53 21.34-7.64 42.23-19.79 54.86-39.18 11.44-18.05 17.13-39.26 18.93-60.41 1.83-19.68.98-40.19-7.04-58.54-4.38-10.4-10.75-19.9-18.41-28.17 4.35-11.55 6.36-24.01 5.15-36.33-.83-10.95-4-21.55-7.78-31.8-12.39-2.86-24.62 2.59-35.81 7.33-12.24 4.92-23.52 11.86-34.58 18.97-41.67-11.42-86.35-11.43-128.01.01-10.39-6.81-21.03-13.35-32.64-17.87-11.97-4.95-24.78-11.15-38.06-8.48-6.53 17.31-10.21 36.35-6.25 54.71.85 4.62 2.5 9.01 3.91 13.48-15.99 16.76-25.2 39.5-26.09 62.6-.65 21.01 1.54 42.39 8.86 62.21 3.44 9.55 7.92 18.81 14.04 26.94 7.27 9.78 16.88 17.62 27.42 23.65 12.39 7.03 25.76 12.51 39.81 15.13 8.64 2.16 17.51 2.99 26.29 4.29-9.58 8.99-14.45 21.66-16.39 34.42-7.35 3.19-15.14 5.4-23.14 6.06-6.88.46-13.98 1.09-20.66-1-9.25-2.81-17.35-8.79-23.42-16.24-4.71-5.49-7.65-12.24-12.37-17.72a53.148 53.148 0 0 0-14.87-12.28c-7.25-4.57-15.96-7.39-24.58-6.2-2.23.41-5.74.99-5.94 3.73 1.39 5.45 6.28 9.28 10.86 12.17 6.97 3.77 12.12 10.03 16.49 16.5 5.34 7.27 8.83 15.66 12.27 23.94 5.7 13.47 18.79 22.76 32.74 26.16 17.09 3.51 34.91 4.05 52.04.47.07 15.59.2 31.18.32 46.78.15 4.11-1.33 8.39-4.6 11.03-3.45 2.93-8.39 2.98-12.61 2.17-39.42-12.8-75.68-35.43-104.09-65.66-20.53-21.75-37.73-46.77-49.87-74.15C7.22 333.85.53 299.19 0 264.62v-5.17c.38-7.81.41-15.64 1.39-23.4 5.82-64.84 38.76-126.29 88.1-168.48 17.36-14.7 36.6-27.2 57.14-36.97 30.57-14.66 64.21-22.74 98.08-23.99z"/></svg>