<svg xmlns="http://www.w3.org/2000/svg" width="1280pt" height="1280" viewBox="0 0 1280 960"><path fill="#c5221f" d="M122.26 0h18.44c24.2 1.92 47.77 10.7 67.3 25.12 24.61 18.36 49.13 36.84 73.71 55.24 2.73 2.01 5.33 4.23 8.29 5.92.25 2.24.47 4.49.48 6.75.01 122.06-.04 244.13.03 366.18-.11 1.64-.43 3.53-2.07 4.34C192.16 391.71 96.29 319.31 0 247.47V125.36c.49-6.14.96-12.3 2.1-18.36 4.7-27.09 18.52-52.44 38.62-71.18C62.76 15.03 92.06 2.27 122.26 0Z"/><path fill="#fbbc04" d="M1139.32 0h18.36c36.33 2.66 71.3 20.75 94.03 49.28 17.77 21.89 27.55 49.81 28.29 77.94v119.95c-96.8 72.8-193.75 145.39-290.65 218.05-.32-119.73-.05-239.48-.14-359.22-.13-6.18.32-12.38-.31-18.54 24.84-18.7 49.74-37.32 74.6-55.99 7.62-5.8 15.34-11.55 23.82-16.06 15.98-8.78 33.85-13.91 52-15.41Z"/><path fill="#ea4335" d="M290.57 465.06c.15-126.01-.14-252.04.13-378.06C407.03 174.5 523.58 261.7 640 349.08c116.33-87.17 232.56-174.46 348.9-261.62.63 6.16.18 12.36.31 18.54.09 119.74-.18 239.49.14 359.22l-.25.21C872.76 552.73 756.4 640.02 640 727.24c-116.42-87.27-232.8-174.57-349.18-261.88l-.25-.3Z"/><path fill="#4285f4" d="M0 247.47c96.29 71.84 192.16 144.24 288.44 216.08.45.82 1.29 1.17 2.13 1.51l.25.3c.2 164.88.03 329.76.09 494.64H83.32c-20.8-1.09-41.17-9.59-56.21-24.06C11.06 920.88 1.45 899.55 0 877.65V247.47Z"/><path fill="#34a853" d="M989.35 465.22c96.9-72.66 193.85-145.25 290.65-218.05v629.56c-1.08 20.1-9.03 39.81-22.68 54.67-15.14 16.9-37.07 27.13-59.66 28.6H989.09c0-164.86-.01-329.72.01-494.57l.25-.21Z"/></svg>