<svg xmlns="http://www.w3.org/2000/svg" width="1024pt" height="1024pt" viewBox="0 0 1024 1024"><path fill="#007ebb" d="M110.53 0h801.94c32.35.49 64.06 15.63 84.76 40.49 16.35 19.21 25.74 43.98 26.77 69.14v805.26c-1.07 20.85-7.57 41.45-19.33 58.75-17.02 25.51-44.74 43.62-75.01 48.69-4.8.86-9.66 1.18-14.5 1.67H109.78c-31.8-1.12-62.79-16.13-83.13-40.64C10.2 963.95.76 938.88 0 913.47V111.49c.51-28.83 12.48-57.25 32.86-77.66C53.13 13.1 81.57.83 110.53 0m115.8 142.45c-30.52 1.81-59.12 20.61-73.32 47.62-10.6 19.64-13.5 43.23-8.17 64.89 4.67 19.4 15.99 37.11 31.61 49.53 15.1 12.14 34.22 19.18 53.6 19.64 18.36.56 36.84-4.72 52.11-14.93 16.17-10.71 28.73-26.75 35.25-45.01 7.47-20.7 7.14-44.1-.97-64.55-7.47-19.11-21.63-35.51-39.48-45.64-15.23-8.77-33.1-12.78-50.63-11.55m409.72 243.53c-33.81 13.53-63.33 38-82.39 69.08.01-22.11.04-44.22-.01-66.33-48.81.01-97.61-.01-146.41.01-.01 164.34-.01 328.68 0 493.02 48.81.01 97.62.01 146.43 0V630.93c-.3-19.26.93-38.81 6.8-57.27 5.35-17.25 15.17-33.56 29.8-44.46 15.3-11.62 34.76-16.51 53.74-16.8 16.79-.44 34.24 2.79 48.37 12.31 13.2 8.72 22.45 22.36 27.96 37.01 7.38 19.52 9.4 40.6 9.48 61.33.01 86.24-.02 172.47.01 258.71 50.65.01 101.29.01 151.94 0-.02-105.91.08-211.83-.05-317.74-.37-22.23-2.9-44.5-8.71-65.98-7.96-29.84-22.92-58.28-45.5-79.62-22.76-21.84-52.56-35.38-83.39-41.03-35.9-6.44-73.95-5.13-108.07 8.59m-479.13 2.76c-.02 164.34-.02 328.68 0 493.02 50.9.01 101.79.02 152.69-.01-.01-164.34.03-328.68-.02-493.02-50.89.01-101.78-.01-152.67.01Z"/><g fill="#fff"><path d="M226.33 142.45c17.53-1.23 35.4 2.78 50.63 11.55 17.85 10.13 32.01 26.53 39.48 45.64 8.11 20.45 8.44 43.85.97 64.55-6.52 18.26-19.08 34.3-35.25 45.01-15.27 10.21-33.75 15.49-52.11 14.93-19.38-.46-38.5-7.5-53.6-19.64-15.62-12.42-26.94-30.13-31.61-49.53-5.33-21.66-2.43-45.25 8.17-64.89 14.2-27.01 42.8-45.81 73.32-47.62ZM636.05 385.98c34.12-13.72 72.17-15.03 108.07-8.59 30.83 5.65 60.63 19.19 83.39 41.03 22.58 21.34 37.54 49.78 45.5 79.62 5.81 21.48 8.34 43.75 8.71 65.98.13 105.91.03 211.83.05 317.74-50.65.01-101.29.01-151.94 0-.03-86.24 0-172.47-.01-258.71-.08-20.73-2.1-41.81-9.48-61.33-5.51-14.65-14.76-28.29-27.96-37.01-14.13-9.52-31.58-12.75-48.37-12.31-18.98.29-38.44 5.18-53.74 16.8-14.63 10.9-24.45 27.21-29.8 44.46-5.87 18.46-7.1 38.01-6.8 57.27v250.83c-48.81.01-97.62.01-146.43 0-.01-164.34-.01-328.68 0-493.02 48.8-.02 97.6 0 146.41-.01.05 22.11.02 44.22.01 66.33 19.06-31.08 48.58-55.55 82.39-69.08ZM156.92 388.74c50.89-.02 101.78 0 152.67-.01.05 164.34.01 328.68.02 493.02-50.9.03-101.79.02-152.69.01-.02-164.34-.02-328.68 0-493.02Z"/></g></svg>