<svg fill="#000" width="512pt" height="512pt" viewBox="0 0 512 512" xmlns="http://www.w3.org/2000/svg"><path d="M36.77 0h438.45c8.56 2.94 16.61 7.39 23.46 13.32A72.704 72.704 0 0 1 512 36.77v438.45c-2.89 8.6-7.45 16.56-13.32 23.46A71.218 71.218 0 0 1 475.25 512H36.77c-6.95-2.44-13.59-5.71-19.47-10.18-4.86-2.85-7.61-7.91-10.71-12.41C3.62 485.07 2 480.04 0 475.23V36.78c2.45-6.95 5.66-13.62 10.18-19.48 2.85-4.87 7.92-7.61 12.44-10.68C26.95 3.65 31.94 1.94 36.77 0m68.65 57.51c-7.1 1.85-13.79 5.09-20.01 8.91-8.5 7.3-16.94 15.6-20.5 26.53-1.78 4.38-1.86 9.16-3.02 13.7-.68 2.6-.83 5.35-.12 7.97 1.22 4.5 1.2 9.26 2.87 13.65 3 9.05 9.11 16.65 16.08 23 4.31 5.1 10.58 7.67 16.48 10.43 4.7 1.92 9.65 3.59 14.8 3.34 5.57-.23 11.35.7 16.72-1.19 4.86-1.63 10.01-2.82 14.21-5.89 4.88-3.36 10.32-6.19 14.09-10.89 7.96-10.33 14.03-22.79 13.94-36.07-.01-13.74-6.34-26.63-14.79-37.15-3.45-3.62-7.96-5.98-11.61-9.39-5.6-3.69-12.37-5.05-18.66-7.17-6.79-.46-13.73-.71-20.48.22m228.55 129.32c-6.05.45-11.58 3.11-17.29 4.88-5.79 2.57-11.76 5.11-16.49 9.43-4.59 3.28-9.3 6.66-12.43 11.47-1.78 2.98-4.15 5.53-6.7 7.86-.54-7.06.33-14.18-.44-21.21-1.53-4.68-4.89-10.55-10.54-10.28-20.71.03-41.42.04-62.13-.01-5.99-.31-11.16 5.03-10.95 10.96-.01 81.38.02 162.76-.02 244.14-.05 6 5.98 11.52 11.96 10.97 19.7-.06 39.4-.08 59.1.01 7.21 1.12 12.57-6.49 12.86-12.98.01-43.69-.02-87.39.01-131.08-.18-4.11 1.51-7.93 2.05-11.93.86-6.86 4.16-13.04 6.83-19.31 4.29-8.53 11.21-16.25 20.33-19.65 3.8-1.49 7.66-3.29 11.85-3.16 5.27 0 10.59-.33 15.83.37 5.39 1.4 10.64 3.53 15.35 6.53 3.4 2.55 6.31 5.73 8.95 9.06 4.77 7.24 6.73 15.83 8.68 24.15 1.22 17.95.49 35.97.68 53.95-.01 29.69.03 59.38-.03 89.07-.03 4.15 2.06 7.95 4.24 11.36 2.38 2.44 5.84 3.85 9.27 3.61 20.38-.09 40.75-.02 61.13-.03 2.48.14 4.73-1 6.81-2.22 4.5-2.41 5.43-8.11 5.79-12.73-.04-43.37.06-86.74-.06-130.11.08-4.39-1.84-8.53-1.66-12.93-.21-6.89.89-13.98-1.18-20.68-1.08-3.58-.51-7.39-1.39-11-2.63-10.6-4.9-21.37-9.36-31.4-3.88-8.26-8.43-16.49-15.25-22.71-4.99-4.74-9.39-10.25-15.53-13.59-5.26-3.97-11.79-5.4-17.68-8.12-5.06-2.25-10.65-2.36-15.89-3.92-2.83-.79-5.78-.64-8.67-.63-9.36.09-18.71-.01-28.06.01-3.44-.06-6.61 1.44-9.97 1.85m-251.48 2.71c-3.65 2.21-7.71 5.7-7.51 10.38.03 81.38.04 162.77 0 244.15-.07 1.89.28 3.86 1.75 5.19 2.53 2.55 5.12 6.22 9.19 5.76 19.71-.02 39.43-.05 59.14.02 3.42.2 6.96-1.12 9.32-3.6 2.06-3.49 4.33-7.19 4.38-11.37-.03-76.35-.04-152.71 0-229.07.3-6.01-.06-12.37-3.16-17.67-2.52-2.45-5.94-4.45-9.55-4.36-19.7.03-39.41.06-59.12-.01-1.48.09-3.06-.08-4.44.58z"/></svg>